<svg width="50" height="50" viewBox="0 0 50 50" fill="none" xmlns="http://www.w3.org/2000/svg">
<path d="M9.34912 44.275C15.9991 35.975 21.0491 26.375 24.4991 15.475C27.9491 26.375 32.9991 35.975 39.6491 44.275H35.1491C31.1491 39.275 27.5991 33.05 24.4991 25.6C21.3991 33.05 17.8491 39.275 13.8491 44.275H9.34912Z" fill="black"/>
<path d="M24.4867 38.44C20.8867 38.44 18.1267 37.5733 16.2067 35.84C14.3134 34.1067 13.3667 31.5733 13.3667 28.24V19.76C13.3667 16.4267 14.3134 13.8933 16.2067 12.16C18.1267 10.4267 20.8867 9.56 24.4867 9.56C28.1134 9.56 30.8734 10.4267 32.7667 12.16C34.6867 13.8933 35.6467 16.4267 35.6467 19.76V28.24C35.6467 31.5733 34.6867 34.1067 32.7667 35.84C30.8734 37.5733 28.1134 38.44 24.4867 38.44ZM24.4867 35.44C26.8601 35.44 28.6734 34.8267 29.9267 33.6C31.2067 32.3467 31.8467 30.56 31.8467 28.24V19.76C31.8467 17.44 31.2067 15.6667 29.9267 14.44C28.6734 13.1867 26.8601 12.56 24.4867 12.56C22.1401 12.56 20.3267 13.1867 19.0467 14.44C17.7934 15.6667 17.1667 17.44 17.1667 19.76V28.24C17.1667 30.56 17.7934 32.3467 19.0467 33.6C20.3267 34.8267 22.1401 35.44 24.4867 35.44Z" fill="black"/>
</svg>
