<svg width="100" height="100" viewBox="0 0 100 100" fill="none" xmlns="http://www.w3.org/2000/svg">
<path d="M49.8 50.22C48.0267 50.22 46.6667 49.7867 45.72 48.92C44.7733 48.04 44.3 46.7733 44.3 45.12V40.88C44.3 39.2267 44.7733 37.9667 45.72 37.1C46.6667 36.22 48.0267 35.78 49.8 35.78C51.5733 35.78 52.9333 36.22 53.88 37.1C54.8267 37.9667 55.3 39.2267 55.3 40.88V45.12C55.3 46.7733 54.8267 48.04 53.88 48.92C52.9333 49.7867 51.5733 50.22 49.8 50.22ZM49.8 49.06C51.1067 49.06 52.1067 48.72 52.8 48.04C53.5067 47.36 53.86 46.3867 53.86 45.12V40.88C53.86 39.6133 53.5067 38.64 52.8 37.96C52.1067 37.28 51.1067 36.94 49.8 36.94C48.4933 36.94 47.4867 37.28 46.78 37.96C46.0867 38.64 45.74 39.6133 45.74 40.88V45.12C45.74 46.3867 46.0867 47.36 46.78 48.04C47.4867 48.72 48.4933 49.06 49.8 49.06Z" fill="black"/>
<g style="mix-blend-mode:darken">
<path d="M41.9195 53.88C45.4662 49.4533 48.1595 44.3333 49.9995 38.52C51.8395 44.3333 54.5329 49.4533 58.0795 53.88H55.6795C53.5462 51.2133 51.6529 47.8933 49.9995 43.92C48.3462 47.8933 46.4529 51.2133 44.3195 53.88H41.9195Z" fill="black"/>
</g>
</svg>
