<svg width="52" height="52" viewBox="0 0 52 52" fill="none" xmlns="http://www.w3.org/2000/svg">
<path fill-rule="evenodd" clip-rule="evenodd" d="M1.83279 50.7938C1.09091 50.4251 0.788363 49.5248 1.15702 48.783L24.4772 1.85432C24.5839 1.63046 24.7464 1.43161 24.9571 1.28096C25.028 1.23026 25.1029 1.18602 25.1809 1.14858C25.3894 1.04818 25.6101 1.00035 25.8276 1.00001C26.0422 0.999325 26.2601 1.04486 26.4666 1.14154C26.5326 1.17234 26.5964 1.208 26.6576 1.24828C26.6915 1.27063 26.7243 1.29419 26.7559 1.31887C26.9401 1.46271 27.084 1.64482 27.1819 1.8478L50.7798 48.7766C51.152 49.5167 50.8537 50.4184 50.1136 50.7906C49.8078 50.9444 49.4744 50.9837 49.1621 50.9246V50.9505L26.9422 50.9505H25.8312H25.4422H3.61131H2.53064C2.50969 50.9509 2.4887 50.9509 2.4677 50.9505H2.11131V50.8995C2.01694 50.874 1.92368 50.8389 1.83279 50.7938ZM12.047 33.6099L20.0523 17.5003H24.3312L24.3312 33.6099H12.047ZM11.0531 35.6099L4.9207 47.9505H24.3312V35.6099H11.0531ZM27.3312 35.6099V47.9505L47.0065 47.9505L40.8011 35.6099L27.3312 35.6099ZM39.7954 33.6099L31.6948 17.5003H27.3312L27.3312 33.6099H39.7954Z" fill="#121212"/>
</svg>
