<?xml version="1.0" standalone="no"?>
<!DOCTYPE svg PUBLIC "-//W3C//DTD SVG 20010904//EN"
 "http://www.w3.org/TR/2001/REC-SVG-20010904/DTD/svg10.dtd">
<svg version="1.0" xmlns="http://www.w3.org/2000/svg"
 width="700.000000pt" height="700.000000pt" viewBox="0 0 700.000000 700.000000"
 preserveAspectRatio="xMidYMid meet">
<metadata>
Created by potrace 1.14, written by Peter Selinger 2001-2017
</metadata>
<g transform="translate(0.000000,700.000000) scale(0.100000,-0.100000)"
fill="#000000" stroke="none">
<path d="M3438 6860 c-20 -4 -56 -20 -79 -36 -45 -31 21 99 -1324 -2609 -194
-390 -561 -1128 -815 -1640 -967 -1944 -1073 -2161 -1081 -2195 -19 -84 35
-185 118 -221 44 -19 123 -19 3231 -19 2210 0 3199 3 3225 11 86 23 151 120
141 211 -4 43 -41 118 -979 1983 -503 999 -1170 2327 -1755 3490 -260 517
-484 952 -498 967 -45 48 -116 71 -184 58z m-167 -2220 c4 -17 3 -2153 -1
-2159 -7 -10 -1640 -8 -1640 2 0 4 166 342 368 750 203 408 443 891 533 1072
90 182 166 332 170 335 4 3 134 5 288 5 155 0 282 -2 282 -5z m1015 -35 c151
-290 1063 -2119 1059 -2124 -9 -8 -1656 -8 -1661 1 -6 9 -5 2148 0 2156 2 4
134 7 293 7 l288 -1 21 -39z m-1013 -2409 c3 -10 1 -1599 -2 -1636 -1 -13
-153 -15 -1301 -15 -715 0 -1300 3 -1300 7 0 4 184 378 409 831 l408 823 891
0 c619 0 892 -3 895 -10z m2633 -811 c227 -451 414 -825 414 -830 0 -11 -2624
-15 -2634 -4 -5 5 -7 382 -6 1450 l0 205 906 0 906 -1 414 -820z"/>
</g>
</svg>
